<svg xmlns="http://www.w3.org/2000/svg" viewBox="0 0 500 500"><g id="freepik--background-complete--inject-173"><path d="M95.32,276.65c-51.81,0-51.9,73.68,0,73.68S147.22,276.65,95.32,276.65Z" style="fill:#ebebeb"></path><path d="M126.83,320.4c-2.76,12.67-13.27,23.67-31.51,23.67-43.07,0-43-61.16,0-61.16.28,0,.56,0,.84,0-40.47.74-40.27,58.65.79,58.65C113.7,341.58,123.69,331.89,126.83,320.4Z" style="fill:#dbdbdb"></path><path d="M95.63,291A1.31,1.31,0,0,1,97,292.21v2.05a19.19,19.19,0,0,1,10,3.59c.51.36.79.66.79,1.18a1.39,1.39,0,0,1-1.46,1.28,1.43,1.43,0,0,1-1-.36,16.71,16.71,0,0,0-8.41-3.33V311c8.52,1.64,12.11,4.56,12.11,9.59,0,5.44-5,9.28-12,9.49v4a1.35,1.35,0,0,1-2.69,0V330a22.07,22.07,0,0,1-12.61-5,1.3,1.3,0,0,1-.62-1.07,1.42,1.42,0,0,1,1.41-1.29,1.47,1.47,0,0,1,1,.36A18.86,18.86,0,0,0,94.4,327.7V313.08c-8.41-1.69-11.89-4.51-11.89-9.64s4.93-9.13,11.77-9.28v-2A1.32,1.32,0,0,1,95.63,291Zm-1.23,19.5v-14c-5.44.11-9,3.08-9,6.77C85.37,306.72,87.16,308.88,94.4,310.47Zm2.46,3.12v14.16c5.61-.1,9.25-3.08,9.25-7C106.11,317.24,104.15,315.08,96.86,313.59Z" style="fill:#dbdbdb"></path><path d="M363.34,182.37c-40.61,0-40.68,57.74,0,57.74S404,182.37,363.34,182.37Z" style="fill:#ebebeb"></path><path d="M388,216.65c-2.17,9.94-10.41,18.55-24.7,18.55-33.75,0-33.7-47.92,0-47.92H364c-31.71.59-31.55,46,.62,46C377.74,233.26,385.56,225.66,388,216.65Z" style="fill:#dbdbdb"></path><path d="M363.58,193.6a1,1,0,0,1,1.05,1v1.61a15.08,15.08,0,0,1,7.82,2.82c.39.28.61.52.61.92a1.08,1.08,0,0,1-1.14,1,1.1,1.1,0,0,1-.79-.28,13.17,13.17,0,0,0-6.59-2.61v11.26c6.68,1.28,9.49,3.57,9.49,7.51,0,4.26-3.91,7.28-9.4,7.44v3.13a1.06,1.06,0,0,1-2.11,0v-3.17a17.28,17.28,0,0,1-9.88-3.9,1,1,0,0,1-.49-.85,1.1,1.1,0,0,1,1.1-1,1.15,1.15,0,0,1,.79.28,14.78,14.78,0,0,0,8.57,3.66V210.92c-6.59-1.32-9.31-3.53-9.31-7.55s3.86-7.16,9.22-7.28v-1.53A1,1,0,0,1,363.58,193.6Zm-1,15.27v-11c-4.26.08-7.07,2.41-7.07,5.31C355.54,205.94,356.94,207.63,362.61,208.87Zm1.93,2.46v11.09c4.4-.08,7.25-2.41,7.25-5.47C371.79,214.18,370.25,212.49,364.54,211.33Z" style="fill:#dbdbdb"></path><path d="M399,39.38c-46.66,8.37-34.33,77.49,12.4,69.1S445.71,31,399,39.38Z" style="fill:#dbdbdb"></path><path d="M403.36,38.59c-44.46,8-32.14,77.1,12.4,69.1S447.9,30.6,403.36,38.59Z" style="fill:#ebebeb"></path><path d="M437.76,74.77c-.24,12.31-7.41,24.24-23.06,27.05-37,6.63-47.19-50.73-10.29-57.35.24,0,.48-.09.73-.12-34.61,6.93-24.69,61.21,10.55,54.89C430.06,96.66,437,86,437.76,74.77Z" style="fill:#dbdbdb"></path><path d="M412.24,52a1.18,1.18,0,0,1,1,1.3L413,55.19a16,16,0,0,1,8.24,4.42,1.35,1.35,0,0,1,.54,1.19,1.25,1.25,0,0,1-1.4,1.07,1.2,1.2,0,0,1-.83-.44,13.86,13.86,0,0,0-6.91-4L411.08,71c7.19,2.42,10,5.55,9.41,10.31-.6,5.14-5.35,8.27-11.44,7.75l-.44,3.79a1.21,1.21,0,0,1-1.31,1,1.18,1.18,0,0,1-1-1.3l.45-3.84a18.35,18.35,0,0,1-10.37-6,1.24,1.24,0,0,1-.41-1.08,1.25,1.25,0,0,1,2.19-.63,15.77,15.77,0,0,0,8.94,5.53l1.63-13.84c-7.09-2.45-9.79-5.48-9.22-10.33s5.29-8.14,11.23-7.59l.21-1.84A1.2,1.2,0,0,1,412.24,52ZM409,70.27,410.56,57c-4.72-.46-8.16,2-8.57,5.49C401.6,65.81,402.91,68,409,70.27Zm1.79,3.21-1.58,13.4c4.87.47,8.35-2,8.79-5.66C418.39,77.87,416.93,75.63,410.79,73.48Z" style="fill:#dbdbdb"></path><path d="M258.63,351.32V454.75h17.11V351.32Zm5,99.06H262.3V355.69h1.35Zm4.21,0H266.5V355.69h1.36Zm4.21,0h-1.36V355.69h1.36Z" style="fill:#ebebeb"></path><rect x="254.26" y="346.6" width="25.85" height="4.73" style="fill:#ebebeb"></rect><rect x="254.26" y="454.74" width="25.85" height="4.73" style="fill:#ebebeb"></rect><path d="M295.72,351.32V454.75h17.11V351.32Zm5,99.06h-1.36V355.69h1.36Zm4.2,0H303.6V355.69H305Zm4.21,0h-1.35V355.69h1.35Z" style="fill:#ebebeb"></path><rect x="291.35" y="346.6" width="25.85" height="4.73" style="fill:#ebebeb"></rect><rect x="291.35" y="454.74" width="25.85" height="4.73" style="fill:#ebebeb"></rect><path d="M364.17,351.32V454.75h17.11V351.32Zm5,99.06h-1.35V355.69h1.35Zm4.21,0H372V355.69h1.36Zm4.21,0h-1.36V355.69h1.36Z" style="fill:#ebebeb"></path><rect x="359.8" y="346.6" width="25.85" height="4.73" style="fill:#ebebeb"></rect><rect x="359.8" y="454.74" width="25.85" height="4.73" style="fill:#ebebeb"></rect><path d="M401.26,351.32V454.75h17.11V351.32Zm5,99.06h-1.36V355.69h1.36Zm4.2,0h-1.35V355.69h1.35Zm4.21,0h-1.35V355.69h1.35Z" style="fill:#ebebeb"></path><rect x="396.89" y="346.6" width="25.85" height="4.73" style="fill:#ebebeb"></rect><rect x="396.89" y="454.74" width="25.85" height="4.73" style="fill:#ebebeb"></rect><rect x="247.11" y="339.91" width="182.79" height="6.68" style="fill:#ebebeb"></rect><polygon points="247.11 339.91 429.89 339.91 429.89 341.3 247.11 342.13 247.11 339.91" style="fill:#c7c7c7"></polygon><rect x="247.11" y="459.47" width="182.79" height="6.68" style="fill:#ebebeb"></rect><polygon points="247.11 464.18 429.89 465.16 429.89 466.15 247.11 466.15 247.11 464.18" style="fill:#c7c7c7"></polygon><rect x="242.09" y="466.15" width="192.82" height="6.68" style="fill:#ebebeb"></rect><polygon points="440.5 334.27 440.5 339.91 236.51 339.91 236.51 334.27 338.49 281.02 440.5 334.27" style="fill:#ebebeb"></polygon><path d="M425.7,334.32c-58.25.3-121,1.16-179.09,1.16l4.16-2.17c22-11.46,65.72-34.2,87.73-45.59,25.55,13.63,62,33.3,87.2,46.6Zm0,0c-25.42-13.23-61.87-31.43-87.64-44.7h.87L295.4,312.51l-43.57,22.82-.53-2.15c56.17,0,118,.86,174.4,1.14Z" style="fill:#c7c7c7"></path></g><g id="freepik--Cards--inject-173"><path d="M249.93,391.38l.19,73.68a7.46,7.46,0,0,1-7.44,7.48l-116.85.29a7.45,7.45,0,0,1-7.47-7.44l-.19-73.68a6.94,6.94,0,0,1,6.92-6.95l117.88-.3A6.94,6.94,0,0,1,249.93,391.38Z" style="fill:#37474f"></path><rect x="118.24" y="406.52" width="131.78" height="16.4" style="fill:#263238"></rect><rect x="126.95" y="428.61" width="114.39" height="9.2" style="fill:#fff"></rect><path d="M228.92,431.25l-.7.41-.08,0a.16.16,0,0,1-.15-.09.15.15,0,0,1,.06-.23l1-.59a.18.18,0,0,1,.23.07.19.19,0,0,1,0,.13v4.56a.16.16,0,0,1-.16.17.17.17,0,0,1-.18-.17Z" style="fill:#263238"></path><path d="M230.5,435.4l2.31-2.1a1.28,1.28,0,0,0,.43-.95,1.29,1.29,0,0,0-1.29-1.27,1.29,1.29,0,0,0-.86.33l-.24.22a.16.16,0,0,1-.24,0,.16.16,0,0,1,0-.24l.24-.22a1.68,1.68,0,0,1,1.1-.43,1.59,1.59,0,0,1,1.2.53,1.62,1.62,0,0,1,.43,1.09,1.66,1.66,0,0,1-.53,1.21l-2,1.8h2.35a.18.18,0,0,1,.18.18.18.18,0,0,1-.17.17h-2.8a.15.15,0,0,1-.13,0A.18.18,0,0,1,230.5,435.4Z" style="fill:#263238"></path><path d="M237.69,431l-1.29,1.33a1.67,1.67,0,0,1,.86.45,1.7,1.7,0,0,1,0,2.39,1.73,1.73,0,0,1-1.2.5,1.66,1.66,0,0,1-1.18-.5.17.17,0,0,1,0-.25.18.18,0,0,1,.25,0,1.33,1.33,0,0,0,.94.38A1.4,1.4,0,0,0,237,435a1.31,1.31,0,0,0,.38-.95,1.25,1.25,0,0,0-.39-.93,1.28,1.28,0,0,0-.94-.39.21.21,0,0,1-.14-.07h0a.19.19,0,0,1,0-.26l1.24-1.27h-1.91a.18.18,0,0,1-.18-.18.17.17,0,0,1,.18-.17h2.32a.18.18,0,0,1,.18.18.08.08,0,0,1,0,.07Z" style="fill:#263238"></path><rect x="126.95" y="447.35" width="89.22" height="1.8" style="fill:#263238"></rect><rect x="126.95" y="450.83" width="93.09" height="1.8" style="fill:#263238"></rect><rect x="126.95" y="454.31" width="83.28" height="1.8" style="fill:#263238"></rect><rect x="126.95" y="457.78" width="70.47" height="1.8" style="fill:#263238"></rect><path d="M186.91,353.15l19.29,71.1A7.45,7.45,0,0,1,201,433.4L88.18,464A7.46,7.46,0,0,1,79,458.75L59.75,387.64a6.93,6.93,0,0,1,4.88-8.51L178.4,348.27A6.93,6.93,0,0,1,186.91,353.15Z" style="fill:#455a64"></path><path d="M92,402.51l-7.38,2a8.53,8.53,0,0,1-10.48-6h0a8.53,8.53,0,0,1,6-10.48l7.37-2A8.54,8.54,0,0,1,98,392h0A8.55,8.55,0,0,1,92,402.51Z" style="fill:#0B4E68"></path><path d="M176.16,371.69l-10.8,2.93a4.68,4.68,0,0,1-5.75-3.29h0a4.68,4.68,0,0,1,3.3-5.75l10.8-2.93a4.68,4.68,0,0,1,5.75,3.29h0A4.69,4.69,0,0,1,176.16,371.69Z" style="fill:#fff"></path><path d="M79.61,422l-.83.84a.18.18,0,0,1-.1.07.26.26,0,0,1-.24-.06.23.23,0,0,1,0-.35l1.11-1.18a.26.26,0,0,1,.35,0,.27.27,0,0,1,.08.17l1.73,6.37a.25.25,0,0,1-.18.3.26.26,0,0,1-.3-.18Z" style="fill:#fff"></path><path d="M83.36,427.24l2.44-3.8a1.83,1.83,0,0,0-.56-2.55,1.79,1.79,0,0,0-1.47-.22,1.83,1.83,0,0,0-1.08.78l-.26.4a.24.24,0,0,1-.33.08.24.24,0,0,1-.09-.34l.25-.41a2.49,2.49,0,0,1,1.38-1,2.36,2.36,0,0,1,2.87,1.64,2.4,2.4,0,0,1-.29,1.89L84.13,427l3.27-.89a.27.27,0,0,1,.31.19.26.26,0,0,1-.17.3l-3.86,1,0,0a.27.27,0,0,1-.2,0A.25.25,0,0,1,83.36,427.24Z" style="fill:#fff"></path><path d="M91.74,418.45l-1.29,2.33a2.32,2.32,0,0,1,1.35.31,2.44,2.44,0,0,1,.9,3.33,2.51,2.51,0,0,1-1.48,1.14,2.36,2.36,0,0,1-1.84-.25.24.24,0,0,1-.09-.34.24.24,0,0,1,.34-.1,1.92,1.92,0,0,0,2.81-2.17,1.91,1.91,0,0,0-2.35-1.35.28.28,0,0,1-.22,0h0a.26.26,0,0,1-.1-.36L91,418.72l-2.65.71a.24.24,0,0,1-.31-.18.25.25,0,0,1,.18-.31l3.23-.88a.26.26,0,0,1,.32.18.24.24,0,0,1,0,.12A.94.94,0,0,1,91.74,418.45Z" style="fill:#fff"></path><path d="M98.92,421.94l-3.75,1h0a.3.3,0,0,1-.16,0,.24.24,0,0,1-.12-.33l2.66-6.07v0a.24.24,0,0,1,.33-.12.27.27,0,0,1,.11.1l0,0v0l1.29,4.74.46-.12a.26.26,0,0,1,.32.17.25.25,0,0,1-.19.3l-.46.13.32,1.19a.25.25,0,0,1-.18.3.24.24,0,0,1-.3-.17Zm-.13-.47-1.1-4.06-2.17,4.94Z" style="fill:#fff"></path><path d="M107.8,420.33a.26.26,0,0,1,.26-.44,2,2,0,0,0,1.45.18,1.93,1.93,0,0,0,1.35-2.36,1.93,1.93,0,0,0-.89-1.17,1.89,1.89,0,0,0-1.45-.18,1.94,1.94,0,0,0-1.17.9.24.24,0,0,1-.34.1.13.13,0,0,1-.08-.06h0l0,0,0-.08s0,0,0-.05l-.42-2.88a.23.23,0,0,1,0-.21.24.24,0,0,1,.14-.1l3.23-.87a.25.25,0,0,1,.31.18.24.24,0,0,1-.18.31l-3,.82.32,2.12a2.44,2.44,0,0,1,2.92-.4,2.45,2.45,0,0,1,.91,3.33,2.51,2.51,0,0,1-1.48,1.13A2.46,2.46,0,0,1,107.8,420.33Z" style="fill:#fff"></path><path d="M113.11,413.81a2.91,2.91,0,0,1,2-2.16.26.26,0,0,1,.31.16.26.26,0,0,1-.17.32,2.44,2.44,0,0,0-1.68,1.81,5,5,0,0,0-.12,1.52,2.36,2.36,0,1,1-.14,1.73,3,3,0,0,1-.14-.45A5.93,5.93,0,0,1,113.11,413.81Zm.69,3.21.06.13a.17.17,0,0,1,0,.07,1.88,1.88,0,1,0,1.23-2.53,1.88,1.88,0,0,0-1.31,2.29Z" style="fill:#fff"></path><path d="M120.94,417.14l.91-6.77-3.34.91a.27.27,0,0,1-.31-.18.26.26,0,0,1,.18-.3l3.66-1a.24.24,0,0,1,.15,0,.28.28,0,0,1,.17.11.25.25,0,0,1,0,.07.22.22,0,0,1,0,.14l-1,7.1a.25.25,0,0,1-.18.21.17.17,0,0,1-.1,0A.27.27,0,0,1,120.94,417.14Z" style="fill:#fff"></path><path d="M126,408.69a1.49,1.49,0,0,1,1.56,2.37,2.34,2.34,0,1,1-1.71.47,1.55,1.55,0,0,1-.9-1A1.5,1.5,0,0,1,126,408.69Zm1.75,6.45a1.83,1.83,0,1,0-1-3.54,1.83,1.83,0,0,0,1,3.54Zm-1.1-4a1,1,0,0,0,.71-1.25,1,1,0,0,0-1.23-.69,1,1,0,0,0-.7,1.22A1,1,0,0,0,126.64,411.11Z" style="fill:#fff"></path><path d="M138.3,405.36a2.34,2.34,0,0,1,2.82,1.4s0,0,0,0c.06.19.13.38.18.59a6,6,0,0,1,.09,2.94,3,3,0,0,1-2,2.16h0a.25.25,0,0,1-.31-.16.27.27,0,0,1,.17-.32,2.44,2.44,0,0,0,1.68-1.8,4.79,4.79,0,0,0,.12-1.52,2.37,2.37,0,1,1-2.75-3.33Zm2.42,1.78a1.85,1.85,0,0,0-2.29-1.3,1.86,1.86,0,1,0,1,3.59A1.84,1.84,0,0,0,140.72,407.14Z" style="fill:#fff"></path><path d="M143.29,407.72a4.62,4.62,0,0,1,0-2.61,2,2,0,0,1,3.47-.93,4.72,4.72,0,0,1,1.33,2.24,4.63,4.63,0,0,1,0,2.59,2.24,2.24,0,0,1-1.45,1.52,2.2,2.2,0,0,1-2-.58A4.47,4.47,0,0,1,143.29,407.72Zm.48-.13a4.1,4.1,0,0,0,1.17,2,1.53,1.53,0,0,0,2.65-.72,4.36,4.36,0,0,0-1.16-4.3,1.73,1.73,0,0,0-1.56-.47,1.7,1.7,0,0,0-1.1,1.19A4.11,4.11,0,0,0,143.77,407.59Z" style="fill:#fff"></path><path d="M150.54,402.79l-.83.84a.18.18,0,0,1-.1.07.25.25,0,0,1-.24-.06.23.23,0,0,1,0-.35l1.11-1.18a.26.26,0,0,1,.35,0,.33.33,0,0,1,.08.17l1.73,6.37a.25.25,0,0,1-.18.3.26.26,0,0,1-.3-.18Z" style="fill:#fff"></path><path d="M154.28,408l2.45-3.8a1.83,1.83,0,0,0-.56-2.55,1.87,1.87,0,0,0-2.55.56l-.26.4a.25.25,0,0,1-.42-.26l.25-.41a2.42,2.42,0,0,1,1.38-1,2.36,2.36,0,0,1,2.87,1.65,2.39,2.39,0,0,1-.29,1.88l-2.09,3.25,3.27-.89a.27.27,0,0,1,.31.19.26.26,0,0,1-.17.3l-3.86,1,0,0a.27.27,0,0,1-.2,0A.26.26,0,0,1,154.28,408Z" style="fill:#fff"></path><path d="M168.6,397.6l-1.29,2.33a2.4,2.4,0,0,1,1.35.31,2.44,2.44,0,0,1-.58,4.47,2.4,2.4,0,0,1-1.84-.24.26.26,0,0,1-.09-.35.24.24,0,0,1,.34-.09,2,2,0,0,0,1.46.17,1.92,1.92,0,0,0,.46-3.51,1.88,1.88,0,0,0-1.46-.19.28.28,0,0,1-.22,0h0a.26.26,0,0,1-.1-.36l1.24-2.23-2.65.72a.26.26,0,0,1-.13-.5l3.23-.88a.27.27,0,0,1,.32.18.24.24,0,0,1,0,.12A.94.94,0,0,1,168.6,397.6Z" style="fill:#fff"></path><path d="M175.78,401.09l-3.75,1h0a.22.22,0,0,1-.16,0,.24.24,0,0,1-.12-.33l2.66-6.07v0a.24.24,0,0,1,.33-.12s.08.07.11.1l0,0v0l1.29,4.75.46-.13a.26.26,0,0,1,.32.17.25.25,0,0,1-.19.3l-.46.13.32,1.19a.25.25,0,0,1-.18.3.24.24,0,0,1-.3-.17Zm-.13-.47-1.1-4.06-2.17,4.94Z" style="fill:#fff"></path><path d="M178.73,401.09a.24.24,0,0,1-.09-.35.25.25,0,0,1,.35-.09,2,2,0,0,0,1.45.18,1.92,1.92,0,0,0,1.16-.9,1.89,1.89,0,0,0,.19-1.46,1.93,1.93,0,0,0-.89-1.17,1.93,1.93,0,0,0-2.62.72.24.24,0,0,1-.34.1.2.2,0,0,1-.09-.06h0l0,0,0-.08v-.05l-.42-2.88a.23.23,0,0,1,.05-.21.24.24,0,0,1,.14-.1l3.23-.87a.25.25,0,0,1,.31.18.24.24,0,0,1-.18.31l-3,.82.31,2.12a2.43,2.43,0,0,1,1.1-.63,2.37,2.37,0,0,1,1.83.23,2.44,2.44,0,0,1,.9,3.33,2.45,2.45,0,0,1-3.32.9Z" style="fill:#fff"></path><path d="M184,394.57a2.91,2.91,0,0,1,2-2.16.25.25,0,1,1,.14.48,2.44,2.44,0,0,0-1.68,1.81,4.75,4.75,0,0,0-.12,1.52,2.36,2.36,0,1,1-.14,1.73,3,3,0,0,1-.14-.45A5.93,5.93,0,0,1,184,394.57Zm.69,3.21.06.13a.2.2,0,0,1,0,.07,1.89,1.89,0,1,0-.08-.24Z" style="fill:#fff"></path><rect x="84.71" y="431.65" width="62.57" height="3.08" transform="translate(-109.36 45.47) rotate(-15.18)" style="fill:#fff"></rect><rect x="86.81" y="440.63" width="44.3" height="3.07" transform="translate(-111.96 43.95) rotate(-15.18)" style="fill:#fff"></rect><rect x="123.97" y="371.96" width="31.21" height="3.08" transform="translate(-92.91 49.56) rotate(-15.18)" style="fill:#fff"></rect></g><g id="freepik--Character--inject-173"><path d="M338.91,129.22c4.59,35.65,12.23,72.94,22.32,67.82,8.94-4.53,12.42-36,12.26-36.63-.56-2.15-7.23-17.57-19.27-39.87C343.09,99.94,336.85,113.29,338.91,129.22Z" style="fill:#455a64"></path><path d="M334.69,200.69c2.78.06-3.42,2.63,0,0Z" style="opacity:0.1"></path><path d="M357.81,127.29l-12.58,40c-2.51-11.41-4.62-24.83-6.32-38-2.06-15.93,4.18-29.28,15.31-8.68Q356.11,124,357.81,127.29Z" style="opacity:0.1"></path><path d="M359.79,196.72c12,.73,29-24.75,42.55-49.29,2.33-4.23-29.42-15.93-31.86-11.38C356.58,162,345.22,195.83,359.79,196.72Z" style="fill:#eb9481"></path><path d="M367,141.28s13.95,7.37,30,17.18c0,0-12.84,31.12-34.19,38.95-6.7,2.46-12.59-5.25-9.32-19.91C356.86,162.32,367,141.28,367,141.28Z" style="fill:#455a64"></path><path d="M353.91,179.31c.64-3,1.43-5.94,2.25-8.88,1.69-6,3.76-12,6-17.81,1.28-3.35,2.72-6.63,4.15-9.92,0,0,0-.1-.07,0a105.45,105.45,0,0,0-7.95,17.44,117.27,117.27,0,0,0-4.18,14.34.06.06,0,0,0-.08,0,23.92,23.92,0,0,0-2.48,7.15.09.09,0,0,0,.17,0,37.51,37.51,0,0,1,2.3-6.77c-.25,1.2-.49,2.41-.69,3.62a32.63,32.63,0,0,0-.42,9.86.09.09,0,0,0,.17,0A32.92,32.92,0,0,1,353.91,179.31Z" style="fill:#263238"></path><path d="M353,98.08c10.52,4.38,26.67,20,32,25.82,7.11,7.7,14.85,42.56,15.25,44.77.09.5-4,11-11.45,12.53-3.23.67-9.4-1.38-12.5-.33s-3.85,9.4-6.57,9.63c-5.4.46-11.6-9-13.78-10.76-10.36-8.51,8.52-32.37,6-39.35-3.44-9.6-5.1-26.86-14.51-30.43s-35.73,25.58-41.2,34.56-24,102.74-27.93,114.13-95.8,37.46-113.75,35.05c-11-1.48-23-26.21-28.92-29.58-11.52-6.55-25.31-6.95-33.27-13.84-14.72-12.75-22.21-90.84-18.9-103.42,3.17-12.05,62.74-64,76.91-65.18,25.54-2.1,84.72,6.72,96.08,2.2,18.51-7.36,18.65-12.36,35.11-12.7C319,70.6,337.83,91.76,353,98.08Z" style="fill:#0B4E68"></path><g style="opacity:0.2"><path d="M353,98.08c10.52,4.38,26.67,20,32,25.82,7.11,7.7,14.85,42.56,15.25,44.77.09.5-4,11-11.45,12.53-3.23.67-9.4-1.38-12.5-.33s-3.85,9.4-6.57,9.63c-5.4.46-11.6-9-13.78-10.76-10.36-8.51,8.52-32.37,6-39.35-3.44-9.6-5.1-26.86-14.51-30.43s-35.73,25.58-41.2,34.56-24,102.74-27.93,114.13-95.8,37.46-113.75,35.05c-11-1.48-23-26.21-28.92-29.58-11.52-6.55-25.31-6.95-33.27-13.84-14.72-12.75-22.21-90.84-18.9-103.42,3.17-12.05,62.74-64,76.91-65.18,25.54-2.1,84.72,6.72,96.08,2.2,18.51-7.36,18.65-12.36,35.11-12.7C319,70.6,337.83,91.76,353,98.08Z"></path></g><path d="M388.81,181.2c-3.23.67-9.4-1.38-12.49-.33s-3.86,9.39-6.58,9.63c-5.4.46-11.61-9-13.78-10.76a8.77,8.77,0,0,1-3.11-6.56s0-.05,0-.05v0a6.11,6.11,0,0,1,6.79-5.67c2.42.45,5.11,1.69,5.71,1s-3.64-8.06,1.32-10.79,9.72-1.43,11.27.59c2.41,3.14-.5,8.55,3.16,10.54a6.59,6.59,0,0,0,9.5-3.93c1.22-3.81,7.56-3.32,9.29,2.08a8.37,8.37,0,0,1,.34,1.6l0,.13C400.35,169.16,396.22,179.67,388.81,181.2Z" style="opacity:0.4"></path><path d="M381.12,168.79c-3.67-2-.75-7.4-3.17-10.53-1.35-7.38-4.39-21.33-2.86-21.83,1.35-.43,12.7,20.65,15.65,28.09a2,2,0,0,0-.13.34A6.58,6.58,0,0,1,381.12,168.79Z" style="opacity:0.1"></path><path d="M365.36,168.46c-.49.55-2.38-.18-4.38-.71.14-1.68.34-4,.42-5a69.15,69.15,0,0,1,3.21-12.54c1.43-3.33,2.61-4.67,1.95-.39-.28,1.87-.6,5.18-.85,8.48C362.32,161.45,365.91,167.83,365.36,168.46Z" style="opacity:0.1"></path><g style="opacity:0.30000000000000004"><path d="M400.26,168.67c.08.5-4,11-11.45,12.53-3.23.67-9.4-1.37-12.5-.33s-3.85,9.4-6.57,9.63c-5.4.46-11.6-9-13.78-10.75-10.36-8.51,8.53-32.38,6-39.36-3.42-9.6-5.09-26.86-14.5-30.43-1.59-.6-3.67-.27-6.06.75h0c-11.68,5-30.58,26.35-35.13,33.81-5.46,9-24,102.74-27.93,114.13s-95.8,37.46-113.75,35.05c-11-1.47-23-26.21-28.92-29.58-11.52-6.55-25.32-7-33.27-13.85-14.73-12.75-22.22-90.83-18.9-103.41.45-1.75,2.11-4.33,4.62-7.48,14.87-18.57,60.18-56.71,72.29-57.7,25.55-2.1,84.72,6.73,96.08,2.2,18.51-7.36,18.64-12.35,35.1-12.7C319,70.6,337.83,91.76,353,98.08c10.53,4.38,26.67,20.06,32,25.81C392.12,131.6,399.86,166.47,400.26,168.67Z" style="fill:#fff"></path></g><path d="M341.41,110.71c-11.68,5-30.58,26.35-35.13,33.81-5.46,9-24,102.74-27.93,114.13s-95.8,37.46-113.75,35.05c-11-1.47-23-26.21-28.92-29.58-11.52-6.55-25.32-7-33.27-13.85-14.73-12.75-22.22-90.83-18.9-103.41.45-1.75,2.11-4.33,4.62-7.48-.46,21.92,14.15,86.17,20.8,88.72,7.69,2.94,32.8,3.92,40.22,5.44s34.57,27.55,39.32,28,61.91-13.18,70-16.65,35.93-94.44,42.94-102.72S332.8,112.4,341.41,110.71Z" style="fill:#030402;opacity:0.1"></path><path d="M261.14,83.9c-2.47,0-15.2,12.39-19.64,13.09s-32.18,8.4-29.22,10.47,33.16,3,38.35.59S264.1,83.91,261.14,83.9Z" style="fill:#030402;opacity:0.1"></path><path d="M209.53,217.34c-2.12-3.26-41.59-1.79-46.93-6.42-6.3-5.46-36.92-28.85-37.07-23.17s24.68,34.93,32.39,39.62S212.08,221.24,209.53,217.34Z" style="fill:#030402;opacity:0.1"></path><path d="M334.54,397.52s-1.94,48.55-1.94,48.58c.25,9.49.65,17.8,1.25,22.09a.2.2,0,0,0,0,.07,6.66,6.66,0,0,0,.78,2.91l.06.06c2.87,1.83,78.76,2,81.4,1.11s.34-8.5-2.6-10.85-32-15.42-32-15.42L383,397.56Z" style="fill:#d3766a"></path><path d="M332.27,435.92s.33,10.15.33,10.18c.25,9.49.65,17.8,1.25,22.09a.2.2,0,0,0,0,.07,13.14,13.14,0,0,0,.78,2.91l.06.06c2.87,1.83,78.76,2,81.4,1.11s.34-8.5-2.6-10.85-32-15.42-32-15.42l-.19-10.34Z" style="fill:#fff"></path><path d="M416.1,472.35c-2.65.88-78.52.72-81.41-1.13-1.1-.68-1.72-11.73-2.09-25.12,0-.14,0-.28,0-.42l49-.43,0,.83s29,13.05,32,15.41S418.76,471.47,416.1,472.35Z" style="fill:#0B4E68"></path><path d="M416.1,472.35c-2.65.88-78.52.72-81.41-1.13-1.1-.68-1.72-11.73-2.09-25.12,0-.14,0-.28,0-.42l49-.43,0,.83s29,13.05,32,15.41S418.76,471.47,416.1,472.35Z" style="fill:#030402;opacity:0.4"></path><path d="M415.25,469.4c-12.79-.34-64.4-.51-77.07.12-.11,0-.11.08,0,.08,12.67.62,64.28.37,77.07,0C415.52,469.6,415.52,469.41,415.25,469.4Z" style="fill:#263238"></path><path d="M385.64,446.23c-5-1-11.19-.19-15,3.39-.15.14,0,.35.21.3a70.47,70.47,0,0,1,14.81-3.05A.32.32,0,0,0,385.64,446.23Z" style="fill:#263238"></path><path d="M389.27,448.43c-5-.95-11.19-.19-15,3.39-.15.13,0,.34.22.29a71.13,71.13,0,0,1,14.8-3A.32.32,0,0,0,389.27,448.43Z" style="fill:#263238"></path><path d="M392.89,450.63c-5-.95-11.18-.19-15,3.38-.15.14,0,.35.22.3a70.89,70.89,0,0,1,14.8-3.05A.32.32,0,0,0,392.89,450.63Z" style="fill:#263238"></path><path d="M330.39,446.1,385.68,445s4.5-99.9,1.57-131.64c-1.63-17.64-44.88-81-60.37-112.21-1.09-2.21-3.65-19.28-3.65-19.28H261.89s-1.41,18.33,11.75,41.7c20.83,37,60.32,86.67,60.32,96.23C334,351.93,330.39,446.1,330.39,446.1Z" style="fill:#263238"></path><path d="M380.82,434.08c-7.48-.08-5.33-.17-12.82-.16-3.66,0-27.73.07-31.14.73-.08,0-.07.16,0,.17,3.43.59,27.49.07,31.15,0,7.49-.17,5.34-.21,12.81-.47A.13.13,0,0,0,380.82,434.08Z" style="fill:#37474f"></path><path d="M339.89,428.07c.45-23.44,2.15-76.15,2.24-98.75-.13-4.28.31-8.83-.52-13-2.91-5.71-6.72-11-10.2-16.41-17.87-27.46-37.41-54.43-54.35-82.53-5-9.9-7.3-20.81-8.9-31.67,2,10.69,4.59,21.58,9.76,31.2,2.75,4.7,5.84,9.25,8.88,13.81,14.3,21.14,32.2,46.94,46.28,68.09,3,4.61,6,9.19,8.82,14a12.16,12.16,0,0,1,1.78,4c.77,15.15-.18,30.29-.6,45.43-.85,21.94-1.86,43.88-3.19,65.8Z" style="fill:#37474f"></path><path d="M314.75,181.91l-11,88.66c-10.55-15.43-21.82-32.2-30.13-47-13.14-23.37-11.74-41.7-11.74-41.7Z" style="opacity:0.2"></path><path d="M205.77,371.27s-25.61,41.62-25.62,41.66c-4.16,8.53-7.66,16.08-9.1,20.16a.14.14,0,0,0,0,.06,6.61,6.61,0,0,0-.66,3s0,0,0,.07c1.7,3,68.91,38.19,71.67,38.63s4.22-7.39,2.7-10.84-21.22-28.45-21.22-28.45l25.17-41.8Z" style="fill:#d3766a"></path><path d="M170.38,436.1a.22.22,0,0,0,0,.08c1.71,2.95,68.92,38.18,71.68,38.62s4.22-7.39,2.71-10.84-21.23-28.45-21.23-28.45l4.49-7.46c-11-5.85-30.95-16.14-43.35-22.51-2.7,4.38-4.54,7.38-4.54,7.39-4.16,8.53-7.66,16.08-9.1,20.15a.24.24,0,0,0,0,.08C170.48,434.69,170.23,435.72,170.38,436.1Z" style="fill:#fff"></path><path d="M242.07,474.8c-2.77-.44-70-35.66-71.68-38.63-.66-1.12,3.9-11.21,9.76-23.24l.19-.38L224,434.79l-.4.73s19.69,25,21.22,28.45S244.82,475.25,242.07,474.8Z" style="fill:#0B4E68"></path><path d="M242.07,474.8c-2.77-.44-70-35.66-71.68-38.63-.66-1.12,3.9-11.21,9.76-23.24l.19-.38L224,434.79l-.4.73s19.69,25,21.22,28.45S244.82,475.25,242.07,474.8Z" style="fill:#030402;opacity:0.4"></path><path d="M242.67,471.79c-11.18-6.21-56.87-30.23-68.4-35.52-.09,0-.13,0,0,.07,11,6.4,56.84,30.05,68.34,35.64C242.82,472.1,242.91,471.93,242.67,471.79Z" style="fill:#263238"></path><path d="M227.12,437.56c-4-3.17-9.83-5.34-14.9-3.95-.2.05-.12.33.05.36a70.94,70.94,0,0,1,14.54,4.14A.32.32,0,0,0,227.12,437.56Z" style="fill:#263238"></path><path d="M229.32,441.18c-4-3.16-9.83-5.34-14.9-3.95-.2.06-.12.34.05.37A70.32,70.32,0,0,1,229,441.74.32.32,0,0,0,229.32,441.18Z" style="fill:#263238"></path><path d="M231.52,444.81c-4-3.17-9.83-5.34-14.9-3.95-.2.05-.12.33,0,.36a70.77,70.77,0,0,1,14.54,4.14A.32.32,0,0,0,231.52,444.81Z" style="fill:#263238"></path><path d="M323.24,181.86a.18.18,0,0,1,0,0c-.2.92-3.33,15.47-6.58,28-2.36,9.13-4.8,17.15-6.19,18a44.68,44.68,0,0,1-6.13,3.34S283.85,314,279.91,327.78c-7.19,25.13-51.1,109.56-51.1,109.56l-50.64-25.59s48.65-83.17,52.31-95.37c2.6-8.68,22-93.53,22-93.53s-3.75-10.4,7.55-41Z" style="fill:#263238"></path><path d="M268.33,208c1.43-.11,12.11-.69,14.16-1.49,3.32-1.29,8.83-12.12,9.27-12.8s.84-.36.74.18-5,11.45-8,13.51c-3.26,2.2-14.87,1.36-16.15,1A.19.19,0,0,1,268.33,208Z" style="fill:#37474f"></path><path d="M314.56,225.81a100.78,100.78,0,0,0-15.87,7.39c-.2.11-.07.42.14.33,5.35-2.3,10.8-4.5,16-7.08A.35.35,0,0,0,314.56,225.81Z" style="fill:#37474f"></path><path d="M316.17,189.19c0-.18-.34-.22-.34,0a177.81,177.81,0,0,1-.9,17.87c-.25,2.75-2.46,18-7.24,16.86-.8-.19-1.2-1-1.33-2.18a19.09,19.09,0,0,1,.64-4.66c.53-3.19.95-6.39,1.22-9.61a86.64,86.64,0,0,0-.19-18,.16.16,0,0,0-.31,0,165.13,165.13,0,0,1-1.45,24.85c-.6,4-2.59,9.92,1.55,10.53s6.94-9.36,7.46-12.09A91.57,91.57,0,0,0,316.17,189.19Z" style="fill:#37474f"></path><path d="M307.82,224.3a25.39,25.39,0,0,0-1.07,3.15,7.26,7.26,0,0,0-.45,2.6c0,.17.24.18.33.07a9,9,0,0,0,1.11-2.53c.36-1,.75-1.94,1.08-2.93A.53.53,0,0,0,307.82,224.3Z" style="fill:#37474f"></path><path d="M191.84,403.35c7.21-13.57,40.5-75.5,44-82.21s21.81-93.25,22.45-97c.09-.51-1-5.17-1.33-9.27-.27-3.57,3.77-20.36,4.83-23.75.56-1.78,1.17-3.55,1.78-5.31a.16.16,0,0,1,.31.09c-2.18,7.15-5.77,23.29-5.78,28.55,0,3.65,1.49,8.73,1.49,9.32,0,3.64-19,90.57-22.08,97.34s-34.8,64.06-42.55,77.31c-1,1.68-2,3.35-3,5C191.94,403.56,191.78,403.46,191.84,403.35Z" style="fill:#37474f"></path><path d="M228.16,424c-6.61-3.52-4.66-2.61-11.31-6-3.25-1.68-24.63-12.72-28-13.7a.09.09,0,0,0-.08.15c2.78,2.1,24.37,12.72,27.66,14.34,6.72,3.29,4.83,2.26,11.59,5.48C228.17,424.24,228.28,424,228.16,424Z" style="fill:#37474f"></path><path d="M400.86,139.45a4.34,4.34,0,0,0-4-3.27s2.71-3.19,1.19-6.33c-.78-1.61-4-1.79-4-1.79s2.06-2.66.54-5.36c-1.21-2.16-4.29-2-4.29-2s.78-3.47-1.16-5.27c-3.92-3.65-23.42,4.72-23.35,13.19,0,4,4.69,1.65,4.69,1.65s-5.89,4.93-4.27,9,7.49.71,7.49.71-5.66,4.82-3.56,8.87c2.2,4.21,7.49-.16,7.49-.16s-3.08,4.8-.75,7.53c3.83,4.5,9.24-5.55,14-6.37l5.4,6S401.93,143.08,400.86,139.45Z" style="fill:#eb9481"></path><path d="M389.74,120.64a.06.06,0,0,0,0-.11,36.9,36.9,0,0,0-19.57,9.83c-.17.17,0,.51.25.36A75.49,75.49,0,0,1,389.74,120.64Z" style="fill:#263238"></path><path d="M394.07,128c.08,0,0-.16-.05-.14-7.3,1.27-15.54,5.42-20.69,12-.17.23-.1.61.12.36C377.2,136.1,387.56,130.14,394.07,128Z" style="fill:#263238"></path><path d="M377.34,149.27c5.18-6.16,11.81-10,19.2-13.05.09,0,0-.17-.06-.16-4,.49-8.52,2.9-11.87,5.07a21.24,21.24,0,0,0-7.48,8C377.06,149.22,377.23,149.41,377.34,149.27Z" style="fill:#263238"></path><path d="M256.5,184.18c.08.28,74.35,12.88,75.42,12.43,1.51-.65,24.19-55.73,19.65-78.25-1.14-5.63-10.86-15-22.14-9.86C292.1,125.39,256.22,183.16,256.5,184.18Z" style="fill:#0B4E68"></path><path d="M256.5,184.18c.08.28,74.35,12.88,75.42,12.43,1.51-.65,24.19-55.73,19.65-78.25-1.14-5.63-10.86-15-22.14-9.86C292.1,125.39,256.22,183.16,256.5,184.18Z" style="fill:#455a64"></path><path d="M344,126.93c-3.42-1.09-8.09-10-8.87-16.26-.05-.43,2-4,4.25-8.36,1.36-2.67,2.82-5.69,3.95-8.53l16.11,11.42a48.94,48.94,0,0,0-6.06,10.24,6.71,6.71,0,0,0-.34,1.21c0,.06,0,.13-.05.21C352.42,119.22,349.31,128.63,344,126.93Z" style="fill:#eb9481"></path><path d="M341.1,98.72c.07,4.61,1.9,12.29,12.23,16.71a49.21,49.21,0,0,1,6.06-10.23L343.27,93.78C342.64,95.41,341.88,97.07,341.1,98.72Z" style="fill:#263238"></path><path d="M341.69,72.64c-3,6.45-2.2,26.42,2,31.44,6.06,7.27,17.35,9.48,23.88,1.88,6.33-7.36,4.82-33.37,0-38.07C360.5,61,346.14,63.11,341.69,72.64Z" style="fill:#eb9481"></path><path d="M357.9,86.11c-.63,0-1.21-.17-1.83-.26a3,3,0,0,1-1.81-.62,1,1,0,0,1-.07-1.16,2.33,2.33,0,0,1,2.28-.7,3.41,3.41,0,0,1,2.24,1.08A1,1,0,0,1,357.9,86.11Z" style="fill:#263238"></path><path d="M369.79,83.41a17.88,17.88,0,0,1-1.73.63,3,3,0,0,1-1.89.3.93.93,0,0,1-.61-1,2.34,2.34,0,0,1,1.68-1.69,3.45,3.45,0,0,1,2.49-.11A1,1,0,0,1,369.79,83.41Z" style="fill:#263238"></path><path d="M358.55,98A11.77,11.77,0,0,1,364,97.5c.15,0,.29-.35.31-.51h0s-.2-2.93-.2-2.93c.39.18,2.4,1,2.34.44-.44-4.56-.93-9.64-2.34-14.08a.13.13,0,0,0-.25,0c.25,4.4,1.28,8.73,1.61,13.15a8.1,8.1,0,0,0-2.24-.59c-.15,0,.37,3.1.34,3.57a6.84,6.84,0,0,0-5.07.81C357.93,97.79,357.73,98.36,358.55,98Z" style="fill:#263238"></path><path d="M356.24,100c.34.31.69.74,1.19.76a3.59,3.59,0,0,0,1.46-.41c.05,0,.09,0,.07.06a1.87,1.87,0,0,1-1.72.83,1.46,1.46,0,0,1-1.13-1.17C356.08,100,356.19,100,356.24,100Z" style="fill:#263238"></path><path d="M370.21,86.7a3.73,3.73,0,0,0-1.16-.14,4.4,4.4,0,0,0-1.18.19,3.35,3.35,0,0,0-1.1.62,2.93,2.93,0,0,0-.75,1.06l-.3.73.78-.16a7.79,7.79,0,0,1,1.68-.18,3.43,3.43,0,0,1,1.69.39,2.52,2.52,0,0,0-1.61-1,4.92,4.92,0,0,0-1.95,0l.48.57a2.85,2.85,0,0,1,1.35-1.35A8.54,8.54,0,0,1,370.21,86.7Z" style="fill:#263238"></path><path d="M368.29,90.08a7.31,7.31,0,0,1-1.78-.47c-.13-.06-.65-.36-.63-.46a3.28,3.28,0,0,1,.21-.89,2.35,2.35,0,0,0-.39.88,1.17,1.17,0,0,0,.7.72A3.72,3.72,0,0,0,368.29,90.08Z" style="fill:#263238"></path><path d="M354.42,87.48a4.47,4.47,0,0,1,1.15-.2,4.35,4.35,0,0,1,1.19.14,3.32,3.32,0,0,1,1.13.56,2.84,2.84,0,0,1,.8,1l.34.72-.79-.13a8.49,8.49,0,0,0-1.68-.09,3.51,3.51,0,0,0-1.67.47,2.56,2.56,0,0,1,1.56-1.09,4.86,4.86,0,0,1,1.94-.11l-.45.59a2.9,2.9,0,0,0-1.41-1.28A9.6,9.6,0,0,0,354.42,87.48Z" style="fill:#263238"></path><path d="M356.51,90.76a7.12,7.12,0,0,0,1.75-.55c.13-.07.63-.4.61-.5a3.31,3.31,0,0,0-.26-.87,2.45,2.45,0,0,1,.44.85,1.17,1.17,0,0,1-.67.76A3.7,3.7,0,0,1,356.51,90.76Z" style="fill:#263238"></path><path d="M341.75,90.14c3.93.46,4.45-6.42,4.45-6.42s8-.38,9.86-10.46c0,0,11,5.12,17.46-.16s-7.64-21.45-27.25-9.57c0,0-8.78.6-10.82,7.51S337,89.59,341.75,90.14Z" style="fill:#263238"></path><path d="M355.91,72.07a.1.1,0,0,0-.19,0c.59,6.87-4.37,12.56-11.52,11.35a.19.19,0,0,0-.08.37C351.11,85.74,358.43,79.31,355.91,72.07Z" style="fill:#263238"></path><path d="M363.64,59.5s0,0,0,0a24.7,24.7,0,0,1,6.92,2.54c3.17,1.92,7.11,6.46,4.35,10.26-3.79,5.22-12,2.84-17,1a.28.28,0,0,0-.25.49c4.91,2.83,15.56,4.58,18.44-2C379.32,64.56,369,60.19,363.64,59.5Z" style="fill:#263238"></path><path d="M344.08,89.65s-3.65-6.85-6.7-5.62-.84,10.78,2.37,12.44a3.44,3.44,0,0,0,4.8-1.28Z" style="fill:#eb9481"></path><path d="M338.08,86.75c-.05,0-.07.07,0,.09,2.24,1.24,3.22,3.58,3.82,6a1.91,1.91,0,0,0-2.77-.86.08.08,0,0,0,0,.14,2.13,2.13,0,0,1,2.23,1,10,10,0,0,1,.88,2c.09.22.48.16.43-.1a.43.43,0,0,0,0,0C343.1,91.94,341.27,87.45,338.08,86.75Z" style="fill:#263238"></path><path d="M352.06,122.11s2.86-5.23,2.93-6.19-4.39-1.77-7.55-4.13-8.75-8.24-9.47-8.46-3.35,6.6-3.35,6.6,3.1,16.18,9.32,17.74S352.06,122.11,352.06,122.11Z" style="fill:#455a64"></path><path d="M353.56,116.09a5.69,5.69,0,0,1-1.49,3,5.62,5.62,0,0,1,1.49-3Z" style="fill:#263238"></path><path d="M350.73,114.92a5.62,5.62,0,0,1-1.49,3,5.69,5.69,0,0,1,1.49-3Z" style="fill:#263238"></path><path d="M348.3,113.42a5.65,5.65,0,0,1-1.49,3,5.62,5.62,0,0,1,1.49-3Z" style="fill:#263238"></path><path d="M345.93,111.78a5.63,5.63,0,0,1-1.5,3,5.67,5.67,0,0,1,1.5-3Z" style="fill:#263238"></path><path d="M343.4,109.81a5.69,5.69,0,0,1-1.49,3,5.58,5.58,0,0,1,1.49-3Z" style="fill:#263238"></path><path d="M341.16,107.9a5.7,5.7,0,0,1-1.5,3,5.63,5.63,0,0,1,1.5-3Z" style="fill:#263238"></path><path d="M338.91,105.79a5.63,5.63,0,0,1-1.5,3,5.67,5.67,0,0,1,1.5-3Z" style="fill:#263238"></path><path d="M320.46,122.27c-7.29,17.35-18.41,53.71-10.27,65.22,7.83,11.09,53-13.53,62.16-18.57,3.76-2.07-6.07-34.26-10.33-32.56-9.36,3.74-28.46,16.68-29,16.44s.26-14.94.44-29.44C333.76,102.25,325.7,109.8,320.46,122.27Z" style="fill:#eb9481"></path><path d="M388.76,116.26c3.1,2.63.34,5.79.34,5.79a7.58,7.58,0,0,1,4.89,1.63c2.35,2,.17,6.64.17,6.64a9.37,9.37,0,0,1,4.88,2.55c2.06,2.19.51,7.14.51,7.14a8.22,8.22,0,0,1,2.89,4.94c.69,5.22-5.48,10.38-9.42,13.64-5.86,4.83-18.08,9-20.67,10.33L351,144s13.52-19.46,18.46-23S385.72,113.68,388.76,116.26Z" style="fill:#eb9481"></path><path d="M388.58,121.79c-5.3,1.78-9.79,5-14.45,8a.1.1,0,0,0,.11.16c4.6-3,9.74-5.1,14.45-7.94A.13.13,0,0,0,388.58,121.79Z" style="fill:#263238"></path><path d="M393.8,130.07a14.11,14.11,0,0,0-3.25,2c-1.1.79-2.18,1.59-3.26,2.41-2.15,1.65-4.26,3.34-6.32,5.09-.09.08,0,.24.11.16,2.14-1.63,4.31-3.23,6.52-4.78l3.34-2.29a17.46,17.46,0,0,0,3.06-2.27A.19.19,0,0,0,393.8,130.07Z" style="fill:#263238"></path><path d="M399.46,140.07a10.11,10.11,0,0,0-2.83,2c-1,.77-1.93,1.53-2.9,2.29-1.94,1.52-3.89,3-5.88,4.48a.1.1,0,0,0,.11.16c2-1.46,4.08-2.89,6.1-4.37,1-.73,2-1.46,3-2.2a9.37,9.37,0,0,0,2.51-2.22S399.51,140.06,399.46,140.07Z" style="fill:#263238"></path><path d="M350.79,140.82l17.1,33.31s-38.84,18.27-52.48,16.37-7.18-27.93-6.31-33.81c.62-4.19,7.9-29.55,13.53-39.85s10.57-10.44,11.27,3.62-.53,31.15,0,30.89S350.79,140.82,350.79,140.82Z" style="fill:#455a64"></path><path d="M333.87,150.89a38.47,38.47,0,0,0-4.48,5.86,68.12,68.12,0,0,0-3.49,6.19c0,.05.09.07.12,0,1.23-2,2.71-4,4.07-6s2.93-3.93,4.16-6C334.33,150.87,334,150.77,333.87,150.89Z" style="fill:#263238"></path><path d="M314.76,136.67c-1,4.18-5.14,18.63-5.88,22.86a93.54,93.54,0,0,0-1.54,12.76,43.67,43.67,0,0,0,.22,6.37,21.45,21.45,0,0,0,1.47,6.09,8.23,8.23,0,0,0,4,4.32,12.82,12.82,0,0,0,6,.93,53.28,53.28,0,0,0,12.45-2.63c4.1-1.25,8.16-2.68,12.21-4.13s8.09-2.94,12.1-4.49,8-3.09,12-4.69l0,.1-1.06-2.22L368,174.1l0,.06-.08,0q-5.88,2.69-11.83,5.2t-12,4.84q-6,2.31-12.22,4.28c-4.13,1.26-8.32,2.56-12.76,2.78a14.19,14.19,0,0,1-6.61-1.11,8.74,8.74,0,0,1-2.75-2.08,10.51,10.51,0,0,1-1.8-2.89,22.1,22.1,0,0,1-1.5-6.44,38.6,38.6,0,0,1-.1-6.54C307.42,157.88,312.22,144.9,314.76,136.67Z" style="fill:#263238"></path><path d="M334.11,128.72c.06,1.77.07,3.54.11,5.32l0,5.31c0,3.53,0,7.08,0,10.6l0,.65,0,.32,0,.14v.05h0v0l0-.07a.41.41,0,0,0-.25-.18l-.06,0h-.18s0,0,0,0h0l.13-.06.27-.15.57-.32c.76-.44,1.52-.9,2.27-1.35l4.55-2.75,4.56-2.72,4.59-2.68,0,0,0,0,.33.73-.41-.69.07,0c-1.45,1-2.9,2-4.36,3L342,146.85c-1.48,1-3,1.93-4.47,2.88-.76.46-1.51.93-2.28,1.38l-.59.34-.3.17-.18.08-.05,0,0,0-.09,0a.75.75,0,0,1-.21,0l-.1,0a.56.56,0,0,1-.27-.21.44.44,0,0,1-.05-.09v-.08a.17.17,0,0,1,0-.08l0-.11,0-.19,0-.35,0-.68c0-3.56.06-7.09.21-10.64l.25-5.31C333.87,132.26,334,130.49,334.11,128.72Z" style="fill:#263238"></path><path d="M353.09,164.47c-1.94-3.84-3.86-7.69-5.94-11.45-1.19-2.14-2.36-4.28-3.57-6.41-.05-.08-.19,0-.15.07,1.79,3.93,3.61,7.86,5.58,11.7s3.91,7.66,5.92,11.46q1.72,3.24,3.64,6.37s.1,0,.08,0C357,172.18,355,168.33,353.09,164.47Z" style="fill:#263238"></path><path d="M335.48,132.9a24.77,24.77,0,0,1-.59,3.09,26.49,26.49,0,0,1-.9,3,24.61,24.61,0,0,1,.59-3.08A27.28,27.28,0,0,1,335.48,132.9Z" style="fill:#263238"></path><g style="opacity:0.30000000000000004"><path d="M217.21,248.24a10.83,10.83,0,0,1,14.92.4,9.64,9.64,0,0,1,3,7.14,9.92,9.92,0,0,1-3.35,7.14,11,11,0,0,1-14.92-.4,9.87,9.87,0,0,1-3-7.31A9.58,9.58,0,0,1,217.21,248.24Zm7.45.59a7.59,7.59,0,0,0-5.22,1.87,6.31,6.31,0,0,0-2.21,4.6,6.42,6.42,0,0,0,2,4.83,7.61,7.61,0,0,0,10.3.28,6.31,6.31,0,0,0,.25-9.44A7.51,7.51,0,0,0,224.66,248.83Z" style="fill:#030402"></path><path d="M234.07,241.07l-17.37-1.26a1.62,1.62,0,0,1-1.51-1.74V238l.3-4.07a5.59,5.59,0,0,1,6-5.18,5.51,5.51,0,0,1,3.28,1.36,6.32,6.32,0,0,1,11.42,4.17l-.38,5.21s0,0,0,0,0,.07,0,.1A1.63,1.63,0,0,1,234.07,241.07ZM223.29,237l.18-2.53a2.37,2.37,0,0,0-2.21-2.5,2.33,2.33,0,0,0-2.5,2.16l-.18,2.53Zm9.36.68.27-3.68a3.05,3.05,0,0,0-6.09-.44l-.27,3.68Z" style="fill:#030402"></path><path d="M235.45,223.74l-17.29-2.05a1.64,1.64,0,0,1,.38-3.25l15.65,1.85.94-7.94a1.68,1.68,0,0,1,1.84-1.42,1.66,1.66,0,0,1,1.42,1.8l-1.13,9.5v.09A1.62,1.62,0,0,1,235.45,223.74Z" style="fill:#030402"></path><path d="M220.47,204.23a1.6,1.6,0,0,1-1.34-1.87A1.64,1.64,0,0,1,221,201l17.18,2.83a1.65,1.65,0,0,1,1.34,1.9,1.61,1.61,0,0,1-1.87,1.34Z" style="fill:#030402"></path><path d="M230,197.33a10.76,10.76,0,0,1-7.67-13.17,10.88,10.88,0,0,1,3.87-6,1.68,1.68,0,1,1,2.07,2.65,7.68,7.68,0,0,0-2.68,4.13,7.33,7.33,0,0,0,.79,5.68,7,7,0,0,0,9.9,2.5,7.35,7.35,0,0,0,3.39-4.63,8.13,8.13,0,0,0-.1-4.19l-3.92-1-1,4.09a1.7,1.7,0,0,1-2,1.22,1.66,1.66,0,0,1-1.2-2l1.43-5.64v-.06a1.67,1.67,0,0,1,2-1.25l6.33,1.59a2.45,2.45,0,0,1,.46.21l.13.09h0a1.43,1.43,0,0,1,.55.72,10.89,10.89,0,0,1,.59,7.06A10.73,10.73,0,0,1,230,197.33Z" style="fill:#030402"></path><path d="M246.89,165.27l-3.17,6.43,2.8,3a1.64,1.64,0,0,1,.25,1.83,1.74,1.74,0,0,1-.33.46,1.66,1.66,0,0,1-2.33-.06L231.4,163.4a1.65,1.65,0,0,1-.24-1.86,1.63,1.63,0,0,1,1.62-.95l18.47,1.83a1.68,1.68,0,0,1,1.48,1.81,1.91,1.91,0,0,1-.17.55,1.6,1.6,0,0,1-1.59.89Zm-3.45-.35-6.75-.65,4.64,4.94Z" style="fill:#030402"></path><path d="M246.82,142.87l-2.73,3.82,12.82,9.16a1.62,1.62,0,1,1-1.88,2.64l-12.82-9.16-2.72,3.79a1.62,1.62,0,0,1-2.28.36,1.59,1.59,0,0,1-.38-2.26L244.16,141a1.61,1.61,0,0,1,2.26-.37A1.66,1.66,0,0,1,246.82,142.87Z" style="fill:#030402"></path><path d="M250.76,135.71a1.59,1.59,0,0,1-.15-2.29,1.65,1.65,0,0,1,2.31-.17L266,144.75a1.64,1.64,0,0,1,.13,2.31,1.6,1.6,0,0,1-2.3.15Z" style="fill:#030402"></path><path d="M269.86,117.62a10.86,10.86,0,0,1,10.29,10.82,9.69,9.69,0,0,1-2.93,7.15,10,10,0,0,1-7.42,2.7,10.71,10.71,0,0,1-7.26-3.4,10.82,10.82,0,0,1-3-7.42,9.83,9.83,0,0,1,3.06-7.27A9.55,9.55,0,0,1,269.86,117.62Zm4.87,5.68a7.6,7.6,0,0,0-5-2.36,6.35,6.35,0,0,0-4.82,1.69,6.42,6.42,0,0,0-2,4.82,7.62,7.62,0,0,0,7.1,7.46,6.47,6.47,0,0,0,4.93-1.76,6.38,6.38,0,0,0,1.91-4.75A7.52,7.52,0,0,0,274.73,123.3Z" style="fill:#030402"></path><path d="M289.58,122.46a1.61,1.61,0,1,1-2.53,2L276.41,111l0,0a1.6,1.6,0,0,1,1.65-2.58l15.66,4.43-7.54-9.54a1.59,1.59,0,0,1,.26-2.24,1.63,1.63,0,0,1,2.26.24l10.64,13.45a1.64,1.64,0,0,1-.26,2.28,1.6,1.6,0,0,1-1.32.29.71.71,0,0,1-.22,0L282,112.86Z" style="fill:#030402"></path><path d="M302.34,108.18a1.54,1.54,0,0,1,1.66-1.39,9.64,9.64,0,0,0,5.94-1.29,6.38,6.38,0,0,0,2.43-3,2.63,2.63,0,0,0-.15-2.47,1.7,1.7,0,0,0-.75-.64,2.93,2.93,0,0,0-1.23-.23,11.89,11.89,0,0,0-4.12,1.13l-.05,0a16,16,0,0,1-3.79,1.19,6.46,6.46,0,0,1-3.57-.35,4.6,4.6,0,0,1-1.92-1.62,5.47,5.47,0,0,1-.48-4.89,8.7,8.7,0,0,1,3.34-4.17,11.48,11.48,0,0,1,6.64-1.67,1.52,1.52,0,0,1,1.53,1.5,1.5,1.5,0,0,1-1.49,1.54,8.55,8.55,0,0,0-5,1.12,5.68,5.68,0,0,0-2.16,2.69,2.34,2.34,0,0,0,.12,2.17,1.41,1.41,0,0,0,.64.56,3,3,0,0,0,1.09.19,10.25,10.25,0,0,0,3.78-1l0,0a17.54,17.54,0,0,1,4.07-1.27,6.81,6.81,0,0,1,3.81.36,4.79,4.79,0,0,1,2,1.67,5.7,5.7,0,0,1,.48,5.21,9.21,9.21,0,0,1-3.56,4.47,12.8,12.8,0,0,1-7.9,1.82A1.57,1.57,0,0,1,302.34,108.18Z" style="fill:#030402"></path></g></g><g id="freepik--Coins--inject-173"><rect x="370.24" y="458.93" width="63.41" height="14.01" style="fill:#0B4E68"></rect><g style="opacity:0.1"><path d="M372.86,460.21a30.83,30.83,0,0,1,0,11.21,30.61,30.61,0,0,1,0-11.21Z"></path><path d="M377.58,460.21a30.83,30.83,0,0,1,0,11.21,30.61,30.61,0,0,1,0-11.21Z"></path><path d="M379.89,460.21a30.83,30.83,0,0,1,0,11.21,30.61,30.61,0,0,1,0-11.21Z"></path><path d="M392.55,460.21a30.61,30.61,0,0,1,0,11.21,30.83,30.83,0,0,1,0-11.21Z"></path><path d="M396,460.21a30.83,30.83,0,0,1,0,11.21,30.61,30.61,0,0,1,0-11.21Z"></path><path d="M410.15,460.21a30.83,30.83,0,0,1,0,11.21,30.4,30.4,0,0,1,0-11.21Z"></path><path d="M413.42,460.21a30.83,30.83,0,0,1,0,11.21,30.61,30.61,0,0,1,0-11.21Z"></path><path d="M419.43,460.21a30.83,30.83,0,0,1,0,11.21,30.61,30.61,0,0,1,0-11.21Z"></path><path d="M407.41,460.21a30.83,30.83,0,0,1,0,11.21,30.61,30.61,0,0,1,0-11.21Z"></path><path d="M384.07,460.21a30.61,30.61,0,0,1,0,11.21,30.83,30.83,0,0,1,0-11.21Z"></path><path d="M400.49,460.21a30.83,30.83,0,0,1,0,11.21,30.61,30.61,0,0,1,0-11.21Z"></path><path d="M402.85,460.21a30.83,30.83,0,0,1,0,11.21,30.61,30.61,0,0,1,0-11.21Z"></path><path d="M427.26,460.21a30.61,30.61,0,0,1,0,11.21,30.83,30.83,0,0,1,0-11.21Z"></path><path d="M430.81,460.21a30.83,30.83,0,0,1,0,11.21,30.61,30.61,0,0,1,0-11.21Z"></path><path d="M422.22,460.21a30.83,30.83,0,0,1,0,11.21,30.61,30.61,0,0,1,0-11.21Z"></path><path d="M389.81,460.21a30.61,30.61,0,0,1,0,11.21,30.83,30.83,0,0,1,0-11.21Z"></path></g><polygon points="433.65 458.93 433.65 461.9 370.24 463.9 370.24 458.93 433.65 458.93" style="opacity:0.1"></polygon><rect x="365.91" y="444.92" width="63.41" height="14.01" style="fill:#0B4E68"></rect><g style="opacity:0.1"><path d="M368.52,446.2a30.83,30.83,0,0,1,0,11.21,30.61,30.61,0,0,1,0-11.21Z"></path><path d="M373.24,446.2a30.61,30.61,0,0,1,0,11.21,30.83,30.83,0,0,1,0-11.21Z"></path><path d="M375.55,446.2a30.83,30.83,0,0,1,0,11.21,30.61,30.61,0,0,1,0-11.21Z"></path><path d="M388.21,446.2a30.61,30.61,0,0,1,0,11.21,30.83,30.83,0,0,1,0-11.21Z"></path><path d="M391.64,446.2a30.61,30.61,0,0,1,0,11.21,30.83,30.83,0,0,1,0-11.21Z"></path><path d="M405.81,446.2a30.83,30.83,0,0,1,0,11.21,30.61,30.61,0,0,1,0-11.21Z"></path><path d="M409.08,446.2a30.61,30.61,0,0,1,0,11.21,30.83,30.83,0,0,1,0-11.21Z"></path><path d="M415.09,446.2a30.61,30.61,0,0,1,0,11.21,30.83,30.83,0,0,1,0-11.21Z"></path><path d="M403.07,446.2a30.61,30.61,0,0,1,0,11.21,30.83,30.83,0,0,1,0-11.21Z"></path><path d="M379.74,446.2a30.83,30.83,0,0,1,0,11.21,30.61,30.61,0,0,1,0-11.21Z"></path><path d="M396.15,446.2a30.83,30.83,0,0,1,0,11.21,30.61,30.61,0,0,1,0-11.21Z"></path><path d="M398.51,446.2a30.83,30.83,0,0,1,0,11.21,30.61,30.61,0,0,1,0-11.21Z"></path><path d="M422.93,446.2a30.83,30.83,0,0,1,0,11.21,30.61,30.61,0,0,1,0-11.21Z"></path><path d="M426.47,446.2a30.83,30.83,0,0,1,0,11.21,30.61,30.61,0,0,1,0-11.21Z"></path><path d="M417.88,446.2a30.61,30.61,0,0,1,0,11.21,30.83,30.83,0,0,1,0-11.21Z"></path><path d="M385.48,446.2a30.83,30.83,0,0,1,0,11.21,30.61,30.61,0,0,1,0-11.21Z"></path></g><polygon points="429.32 444.92 429.32 447.89 365.9 449.89 365.9 444.92 429.32 444.92" style="opacity:0.1"></polygon><rect x="375.7" y="417.01" width="63.41" height="14.01" style="fill:#0B4E68"></rect><g style="opacity:0.1"><path d="M378.32,418.29a30.83,30.83,0,0,1,0,11.21,30.61,30.61,0,0,1,0-11.21Z"></path><path d="M383,418.29a30.83,30.83,0,0,1,0,11.21,30.61,30.61,0,0,1,0-11.21Z"></path><path d="M385.35,418.29a30.83,30.83,0,0,1,0,11.21,30.61,30.61,0,0,1,0-11.21Z"></path><path d="M398,418.29a30.61,30.61,0,0,1,0,11.21,30.83,30.83,0,0,1,0-11.21Z"></path><path d="M401.44,418.29a30.83,30.83,0,0,1,0,11.21,30.61,30.61,0,0,1,0-11.21Z"></path><path d="M415.6,418.29a30.61,30.61,0,0,1,0,11.21,30.83,30.83,0,0,1,0-11.21Z"></path><path d="M418.88,418.29a30.83,30.83,0,0,1,0,11.21,30.61,30.61,0,0,1,0-11.21Z"></path><path d="M424.89,418.29a30.83,30.83,0,0,1,0,11.21,30.61,30.61,0,0,1,0-11.21Z"></path><path d="M412.87,418.29a30.83,30.83,0,0,1,0,11.21,30.61,30.61,0,0,1,0-11.21Z"></path><path d="M389.53,418.29a30.61,30.61,0,0,1,0,11.21,30.83,30.83,0,0,1,0-11.21Z"></path><path d="M406,418.29a30.83,30.83,0,0,1,0,11.21,30.4,30.4,0,0,1,0-11.21Z"></path><path d="M408.31,418.29a30.83,30.83,0,0,1,0,11.21,30.61,30.61,0,0,1,0-11.21Z"></path><path d="M432.72,418.29a30.61,30.61,0,0,1,0,11.21,30.83,30.83,0,0,1,0-11.21Z"></path><path d="M436.27,418.29a30.83,30.83,0,0,1,0,11.21,30.61,30.61,0,0,1,0-11.21Z"></path><path d="M427.68,418.29a30.83,30.83,0,0,1,0,11.21,30.61,30.61,0,0,1,0-11.21Z"></path><path d="M395.27,418.29a30.61,30.61,0,0,1,0,11.21,30.83,30.83,0,0,1,0-11.21Z"></path></g><polygon points="439.11 417.01 439.11 419.98 375.7 421.99 375.7 417.01 439.11 417.01" style="opacity:0.1"></polygon><rect x="374.1" y="402.99" width="63.41" height="14.01" style="fill:#0B4E68"></rect><g style="opacity:0.1"><path d="M434.66,415.49a30.83,30.83,0,0,1,0-11.21,30.61,30.61,0,0,1,0,11.21Z"></path><path d="M429.94,415.49a30.83,30.83,0,0,1,0-11.21,30.61,30.61,0,0,1,0,11.21Z"></path><path d="M427.63,415.49a30.83,30.83,0,0,1,0-11.21,30.61,30.61,0,0,1,0,11.21Z"></path><path d="M415,415.49a30.83,30.83,0,0,1,0-11.21,30.83,30.83,0,0,1,0,11.21Z"></path><path d="M411.54,415.49a30.83,30.83,0,0,1,0-11.21,30.61,30.61,0,0,1,0,11.21Z"></path><path d="M397.38,415.49a30.61,30.61,0,0,1,0-11.21,30.83,30.83,0,0,1,0,11.21Z"></path><path d="M394.1,415.49a30.83,30.83,0,0,1,0-11.21,30.61,30.61,0,0,1,0,11.21Z"></path><path d="M388.09,415.49a30.83,30.83,0,0,1,0-11.21,30.61,30.61,0,0,1,0,11.21Z"></path><path d="M400.11,415.49a30.83,30.83,0,0,1,0-11.21,30.61,30.61,0,0,1,0,11.21Z"></path><path d="M423.45,415.49a30.61,30.61,0,0,1,0-11.21,30.83,30.83,0,0,1,0,11.21Z"></path><path d="M407,415.49a30.61,30.61,0,0,1,0-11.21,30.83,30.83,0,0,1,0,11.21Z"></path><path d="M404.67,415.49a30.83,30.83,0,0,1,0-11.21,30.61,30.61,0,0,1,0,11.21Z"></path><path d="M380.26,415.49a30.61,30.61,0,0,1,0-11.21,30.83,30.83,0,0,1,0,11.21Z"></path><path d="M376.72,415.49a30.61,30.61,0,0,1,0-11.21,30.83,30.83,0,0,1,0,11.21Z"></path><path d="M385.3,415.49a30.83,30.83,0,0,1,0-11.21,30.61,30.61,0,0,1,0,11.21Z"></path><path d="M417.71,415.49a30.61,30.61,0,0,1,0-11.21,30.83,30.83,0,0,1,0,11.21Z"></path></g><polygon points="437.51 403 437.51 405.97 374.1 407.97 374.1 403 437.51 403" style="opacity:0.1"></polygon><rect x="370.24" y="388.98" width="63.41" height="14.01" style="fill:#0B4E68"></rect><g style="opacity:0.1"><path d="M372.86,390.27a30.83,30.83,0,0,1,0,11.21,30.61,30.61,0,0,1,0-11.21Z"></path><path d="M377.58,390.27a30.83,30.83,0,0,1,0,11.21,30.83,30.83,0,0,1,0-11.21Z"></path><path d="M379.89,390.27a30.83,30.83,0,0,1,0,11.21,30.61,30.61,0,0,1,0-11.21Z"></path><path d="M392.55,390.27a30.61,30.61,0,0,1,0,11.21,30.83,30.83,0,0,1,0-11.21Z"></path><path d="M396,390.27a30.83,30.83,0,0,1,0,11.21,30.61,30.61,0,0,1,0-11.21Z"></path><path d="M410.15,390.27a30.83,30.83,0,0,1,0,11.21,30.61,30.61,0,0,1,0-11.21Z"></path><path d="M413.42,390.27a30.83,30.83,0,0,1,0,11.21,30.83,30.83,0,0,1,0-11.21Z"></path><path d="M419.43,390.27a30.83,30.83,0,0,1,0,11.21,30.83,30.83,0,0,1,0-11.21Z"></path><path d="M407.41,390.27a30.83,30.83,0,0,1,0,11.21,30.61,30.61,0,0,1,0-11.21Z"></path><path d="M384.07,390.27a30.61,30.61,0,0,1,0,11.21,30.83,30.83,0,0,1,0-11.21Z"></path><path d="M400.49,390.27a30.83,30.83,0,0,1,0,11.21,30.61,30.61,0,0,1,0-11.21Z"></path><path d="M402.85,390.27a30.83,30.83,0,0,1,0,11.21,30.61,30.61,0,0,1,0-11.21Z"></path><path d="M427.27,390.27a30.83,30.83,0,0,1,0,11.21,30.61,30.61,0,0,1,0-11.21Z"></path><path d="M430.81,390.27a30.83,30.83,0,0,1,0,11.21,30.61,30.61,0,0,1,0-11.21Z"></path><path d="M422.22,390.27a30.61,30.61,0,0,1,0,11.21,30.83,30.83,0,0,1,0-11.21Z"></path><path d="M389.82,390.27a30.83,30.83,0,0,1,0,11.21,30.61,30.61,0,0,1,0-11.21Z"></path></g><polygon points="433.65 388.98 433.65 391.96 370.24 393.96 370.24 388.98 433.65 388.98" style="opacity:0.1"></polygon><rect x="370.24" y="431.02" width="63.41" height="14.01" style="fill:#0B4E68"></rect><g style="opacity:0.1"><path d="M430.81,443.51a30.61,30.61,0,0,1,0-11.21,30.83,30.83,0,0,1,0,11.21Z"></path><path d="M426.08,443.51a30.83,30.83,0,0,1,0-11.21,30.61,30.61,0,0,1,0,11.21Z"></path><path d="M423.78,443.51a30.61,30.61,0,0,1,0-11.21,30.83,30.83,0,0,1,0,11.21Z"></path><path d="M411.11,443.51a30.83,30.83,0,0,1,0-11.21,30.61,30.61,0,0,1,0,11.21Z"></path><path d="M407.68,443.51a30.83,30.83,0,0,1,0-11.21,30.4,30.4,0,0,1,0,11.21Z"></path><path d="M393.52,443.51a30.61,30.61,0,0,1,0-11.21,30.83,30.83,0,0,1,0,11.21Z"></path><path d="M390.24,443.51a30.83,30.83,0,0,1,0-11.21,30.61,30.61,0,0,1,0,11.21Z"></path><path d="M384.23,443.51a30.83,30.83,0,0,1,0-11.21,30.61,30.61,0,0,1,0,11.21Z"></path><path d="M396.25,443.51a30.83,30.83,0,0,1,0-11.21,30.61,30.61,0,0,1,0,11.21Z"></path><path d="M419.59,443.51a30.83,30.83,0,0,1,0-11.21,30.61,30.61,0,0,1,0,11.21Z"></path><path d="M403.18,443.51a30.61,30.61,0,0,1,0-11.21,30.83,30.83,0,0,1,0,11.21Z"></path><path d="M400.82,443.51a30.61,30.61,0,0,1,0-11.21,30.83,30.83,0,0,1,0,11.21Z"></path><path d="M376.4,443.51a30.61,30.61,0,0,1,0-11.21,30.83,30.83,0,0,1,0,11.21Z"></path><path d="M372.86,443.51a30.61,30.61,0,0,1,0-11.21,30.83,30.83,0,0,1,0,11.21Z"></path><path d="M381.44,443.51a30.83,30.83,0,0,1,0-11.21,30.61,30.61,0,0,1,0,11.21Z"></path><path d="M413.85,443.51a30.61,30.61,0,0,1,0-11.21,30.83,30.83,0,0,1,0,11.21Z"></path></g><polygon points="433.65 431.02 433.65 434 370.24 436 370.24 431.02 433.65 431.02" style="opacity:0.1"></polygon><path d="M366.19,410.48c41.74,7.49,30.72,69.33-11.09,61.83S324.38,403,366.19,410.48Z" style="fill:#0B4E68"></path><path d="M366.19,410.48c41.74,7.49,30.72,69.33-11.09,61.83S324.38,403,366.19,410.48Z" style="opacity:0.1"></path><path d="M362.27,409.78c39.78,7.14,28.75,69-11.09,61.83S322.42,402.63,362.27,409.78Z" style="fill:#0B4E68"></path><path d="M331.49,442.15c.22,11,6.63,21.69,20.63,24.2,33.07,5.94,42.23-45.39,9.21-51.31l-.65-.11c31,6.2,22.09,54.77-9.44,49.11C338.38,461.73,332.18,452.23,331.49,442.15Z" style="opacity:0.1"></path><g style="opacity:0.1"><path d="M360.16,421.45a1.07,1.07,0,0,1,.77,1.27l-.43,1.7a14.17,14.17,0,0,1,6.81,4.85,1.21,1.21,0,0,1,.35,1.13,1.11,1.11,0,0,1-1.36.78,1,1,0,0,1-.69-.49,12.51,12.51,0,0,0-5.68-4.34l-3,11.88c6.11,3,8.22,6.06,7.18,10.22-1.12,4.5-5.69,6.73-11,5.58l-.83,3.31a1.05,1.05,0,0,1-2-.51l.84-3.35a16.44,16.44,0,0,1-8.52-6.5,1.12,1.12,0,0,1-.24-1,1.11,1.11,0,0,1,2-.31,14.13,14.13,0,0,0,7.31,5.92l3-12.09c-6-3-8.07-6-7-10.22s5.62-6.62,10.83-5.45l.4-1.62A1.06,1.06,0,0,1,360.16,421.45Zm-5,15.89,2.89-11.58c-4.14-.94-7.47.84-8.23,3.89C349.15,432.54,350.06,434.66,355.21,437.34Zm1.22,3.05-2.92,11.71c4.26,1,7.63-.8,8.44-4C362.68,445.15,361.64,443,356.43,440.39Z"></path></g></g><g id="freepik--Floor--inject-173"><path d="M59.5,472.83c122.05-.61,259-.61,381,0-122,.62-258.95.61-381,0Z" style="fill:#263238"></path></g><g id="freepik--Bill--inject-173"><path d="M205.91,53.21a13.85,13.85,0,0,0-13.84,13.85v16l27.69,1.84V67.06A13.85,13.85,0,0,0,205.91,53.21Z" style="fill:#ebebeb"></path><path d="M121,66.92V197h43.58v.18A13.82,13.82,0,0,0,178,211.05h.48a11,11,0,0,0,1.41-.08l2.57-.53a13,13,0,0,0,1.87-.75,8.93,8.93,0,0,0,.87-.45,3,3,0,0,0,.44-.28,10.1,10.1,0,0,0,1.15-.78L187,208a6,6,0,0,0,.76-.66l.39-.36a13.31,13.31,0,0,0,3.41-5.65l.06-.13c.09-.33.18-.67.25-1a7.53,7.53,0,0,0,.22-1.33c0-.21,0-.41.06-.61a.65.65,0,0,0,0-.2c0-.25.05-.49.05-.75V67.06c0-3.87,2.71-13.85,14.67-13.85H134.67A13.71,13.71,0,0,0,121,66.92Z" style="fill:#fff"></path><path d="M121,66.92c-.08,0,.37,130.7,0,130l43.77,0a13.7,13.7,0,0,0,17.73,13.39,21.68,21.68,0,0,0,2.69-1.19c.24-.11,1.29-.88,1.55-1a13.42,13.42,0,0,0,5-8,19.67,19.67,0,0,0,.32-4.14c0-4.29,0-12.43,0-16.81,0-27.6.08-68.39.11-96.09,0-4.18-.06-12.64.06-16.82a14.07,14.07,0,0,1,14.75-13v.2c-15.52,0-55.31-.06-70.32-.07C128.38,52.45,121,58.49,121,66.92Zm0,0c0-8.38,7.4-14.53,15.63-13.73l70.32-.08v.2a13.85,13.85,0,0,0-14.5,12.86c-.1,1.47,0,5.63,0,7.19,0,23.63.07,62.79.1,86.48,0,10,.05,26.18,0,36a19.8,19.8,0,0,1-.34,4.24A14,14,0,0,1,164.35,197l.19.19L121,197.17c-.41.14.15-130.11,0-130.25Z" style="fill:#263238"></path><rect x="130.48" y="61.89" width="51.64" height="2.38" style="fill:#dbdbdb"></rect><rect x="135.34" y="55.8" width="51.64" height="2.38" style="fill:#dbdbdb"></rect><rect x="130.48" y="68.56" width="51.64" height="2.37" style="fill:#dbdbdb"></rect><rect x="130.48" y="75.23" width="51.64" height="2.38" style="fill:#dbdbdb"></rect><rect x="130.48" y="81.9" width="51.64" height="2.38" style="fill:#dbdbdb"></rect><rect x="130.48" y="88.57" width="51.64" height="2.37" style="fill:#dbdbdb"></rect><rect x="130.48" y="95.24" width="51.64" height="2.38" style="fill:#dbdbdb"></rect><rect x="130.48" y="101.91" width="51.64" height="2.38" style="fill:#dbdbdb"></rect><rect x="130.48" y="108.57" width="51.64" height="2.37" style="fill:#dbdbdb"></rect><rect x="130.48" y="115.24" width="51.64" height="2.37" style="fill:#dbdbdb"></rect><rect x="130.48" y="121.91" width="51.64" height="2.38" style="fill:#dbdbdb"></rect><rect x="130.48" y="128.58" width="51.64" height="2.38" style="fill:#dbdbdb"></rect><rect x="130.48" y="135.25" width="51.64" height="2.37" style="fill:#dbdbdb"></rect><rect x="130.48" y="141.92" width="51.64" height="2.37" style="fill:#dbdbdb"></rect><rect x="130.48" y="148.59" width="51.64" height="2.38" style="fill:#dbdbdb"></rect><rect x="130.48" y="155.26" width="51.64" height="2.38" style="fill:#dbdbdb"></rect><rect x="130.48" y="161.93" width="51.64" height="2.37" style="fill:#dbdbdb"></rect><rect x="130.48" y="168.6" width="51.64" height="2.38" style="fill:#dbdbdb"></rect><rect x="130.48" y="175.26" width="51.64" height="2.38" style="fill:#dbdbdb"></rect><path d="M100.77,197v.18a13.82,13.82,0,0,0,13.5,13.84H178a13.82,13.82,0,0,1-13.5-13.84V197Z" style="fill:#ebebeb"></path><path d="M134,185.49h-1.15v3.85a.38.38,0,0,1-.39.39.39.39,0,0,1-.4-.39v-3.85h-1.14a.41.41,0,0,1-.4-.41.39.39,0,0,1,.4-.39H134a.39.39,0,0,1,.4.39A.41.41,0,0,1,134,185.49Z" style="fill:#0B4E68"></path><path d="M139.13,185.31a2.65,2.65,0,0,1,0,3.65,2.34,2.34,0,0,1-1.72.77,2.44,2.44,0,0,1-1.77-.77,2.7,2.7,0,0,1,0-3.65,2.44,2.44,0,0,1,1.77-.77A2.34,2.34,0,0,1,139.13,185.31Zm-.09,1.83a1.83,1.83,0,0,0-.49-1.26,1.54,1.54,0,0,0-1.14-.52,1.58,1.58,0,0,0-1.17.52,1.83,1.83,0,0,0-.49,1.26,1.8,1.8,0,0,0,.49,1.25,1.58,1.58,0,0,0,1.17.52,1.54,1.54,0,0,0,1.14-.52A1.8,1.8,0,0,0,139,187.14Z" style="fill:#0B4E68"></path><path d="M144,185.49h-1.15v3.85a.4.4,0,0,1-.79,0v-3.85H140.9a.4.4,0,0,1-.4-.41.39.39,0,0,1,.4-.39H144a.39.39,0,0,1,.39.39A.41.41,0,0,1,144,185.49Z" style="fill:#0B4E68"></path><path d="M147.45,188.54H145.7l-.35.94a.41.41,0,0,1-.38.25.27.27,0,0,1-.13,0,.41.41,0,0,1-.24-.52l1.59-4.24a.43.43,0,0,1,.38-.26.42.42,0,0,1,.39.26l1.59,4.24a.41.41,0,0,1-.24.52.25.25,0,0,1-.13,0,.38.38,0,0,1-.37-.25Zm-.29-.79-.59-1.55-.58,1.55Z" style="fill:#0B4E68"></path><path d="M149.54,189.34v-4.26a.39.39,0,0,1,.4-.39.4.4,0,0,1,.4.39v3.85h2a.41.41,0,0,1,.39.41.4.4,0,0,1-.39.39h-2.36A.39.39,0,0,1,149.54,189.34Z" style="fill:#0B4E68"></path><path d="M154,185.84a.54.54,0,0,1,.54.54.54.54,0,0,1-1.07,0A.54.54,0,0,1,154,185.84Zm0,2.87a.54.54,0,0,1,.54.54.54.54,0,0,1-1.07,0A.54.54,0,0,1,154,188.71Z" style="fill:#0B4E68"></path><rect x="166.51" y="185.8" width="15.62" height="3.62" style="fill:#0B4E68"></rect><path d="M161.3,183.15a.41.41,0,0,1,.41.41v.2a3.5,3.5,0,0,1,1.45.52.49.49,0,0,1,.28.45.51.51,0,0,1-.53.51.52.52,0,0,1-.28-.08,3.06,3.06,0,0,0-1-.41v1.8c1.42.35,2,.92,2,1.92s-.8,1.72-2,1.83v.56a.41.41,0,0,1-.41.41.41.41,0,0,1-.41-.41v-.58a4,4,0,0,1-1.92-.73.52.52,0,0,1,.26-1,.46.46,0,0,1,.31.1,3.37,3.37,0,0,0,1.39.63v-1.85c-1.37-.35-2-.87-2-1.93a1.88,1.88,0,0,1,2-1.79v-.19A.41.41,0,0,1,161.3,183.15Zm-.37,3.2v-1.66c-.6.06-.9.38-.9.79S160.21,186.11,160.93,186.35Zm.74,1.3v1.7c.6-.06.93-.36.93-.81S162.39,187.87,161.67,187.65Z" style="fill:#0B4E68"></path></g></svg>
